<?xml version="1.0" standalone="no"?><!DOCTYPE svg PUBLIC "-//W3C//DTD SVG 1.1//EN" "http://www.w3.org/Graphics/SVG/1.1/DTD/svg11.dtd"><svg t="1589883332942" class="icon" viewBox="0 0 1024 1024" version="1.1" xmlns="http://www.w3.org/2000/svg" p-id="3064" xmlns:xlink="http://www.w3.org/1999/xlink" width="128" height="128"><defs><style type="text/css"></style></defs><path d="M387.3 560.8c-64.7 0-125.6-26.1-171.3-73.6-45.5-47.3-70.6-110-70.6-176.8 0-66.7 25.1-129.5 70.6-176.8C261.8 86.2 322.6 60 387.3 60s125.6 26.1 171.3 73.6c45.5 47.3 70.6 110 70.6 176.8 0 66.7-25.1 129.5-70.6 176.8-45.7 47.4-106.5 73.6-171.3 73.6z m0-460.8c-111.3 0-201.8 94.4-201.8 210.4S276 520.8 387.3 520.8s201.8-94.4 201.8-210.4S498.6 100 387.3 100zM710.1 964H64.5C42.7 964 25 946.2 25 924.4V798.6c0-62.9 24.5-122 69-166.5s103.6-69 166.5-69h253.8c12.6 0 25.3 1 37.7 3 10.9 1.8 18.3 12 16.6 22.9-1.8 10.9-12 18.3-22.9 16.6-10.3-1.7-20.8-2.5-31.3-2.5h-254C152.6 603.2 65 690.8 65 798.6V924h644.9c6.7-8.6 19.2-10.2 27.9-3.6 8.8 6.7 10.5 19.3 3.7 28-7.5 9.9-19 15.6-31.4 15.6z" p-id="3065"></path><path d="M742.8 884.4c-7.3 0-14.5-1.9-20.9-5.6l-47.8-27.4c-20.1-11.5-27-37.2-15.5-57.3l7.9-13.7c-3.6-5.4-6.9-11-9.8-16.8h-15.8-0.1c-23.1 0-41.9-18.8-42-41.8l-0.2-55.1c0-11.2 4.3-21.8 12.2-29.7 7.9-8 18.4-12.3 29.6-12.4h15.8c1.5-3 3-5.9 4.5-8.6s3.3-5.5 5.2-8.3L658 594c-5.6-9.7-7.2-21-4.3-31.8 2.9-10.8 9.8-19.9 19.5-25.5l47.6-27.7c6.4-3.7 13.7-5.7 21.1-5.7 14.9 0 28.8 8 36.3 20.9l7.9 13.7c6.5-0.4 13-0.4 19.5 0l7.9-13.7c7.5-13 21.4-21.1 36.4-21.1 7.3 0 14.5 1.9 20.9 5.6l47.8 27.4c9.7 5.6 16.7 14.6 19.6 25.4s1.5 22.1-4.1 31.9l-7.9 13.7c3.6 5.4 6.9 11 9.8 16.8h15.9c23.1 0 41.9 18.8 42 41.8l0.2 55.1c0 11.2-4.3 21.8-12.2 29.7-7.9 8-18.4 12.3-29.6 12.4h-15.8c-1.5 3-3 5.9-4.5 8.6-1.6 2.7-3.3 5.5-5.2 8.3l7.9 13.6c5.6 9.7 7.2 21 4.3 31.8-2.9 10.8-9.8 19.9-19.5 25.5l-47.6 27.7c-6.4 3.7-13.7 5.7-21.1 5.7-14.9 0-28.8-8-36.3-20.9l-7.9-13.7c-6.5 0.4-13 0.4-19.5 0l-7.9 13.7c-7.5 13.1-21.4 21.2-36.4 21.2z m-73.2-160.9c8.2 0 15.6 5 18.6 12.7 4.3 10.9 10.2 21.1 17.6 30.3 5.2 6.4 5.9 15.3 1.8 22.5l-14.3 25c-0.5 0.9-0.2 2.1 0.7 2.7l47.8 27.4c0.3 0.2 0.6 0.3 1 0.3 0.3 0 1.2-0.1 1.7-1l14.3-25c4.1-7.1 12.2-11.1 20.3-9.8 11.7 1.7 23.6 1.7 35.1-0.1 8.1-1.3 16.2 2.6 20.4 9.7l14.5 24.9c0.5 0.9 1.5 1 1.7 1 0.3 0 0.7-0.1 1-0.3l47.6-27.7c0.5-0.3 0.8-0.7 0.9-1.2s0.1-1-0.2-1.5l-14.5-25c-4.1-7.1-3.5-16 1.6-22.5 4.2-5.3 7.4-9.9 10-14.5 2.6-4.6 5-9.6 7.4-15.9 3-7.7 10.4-12.7 18.6-12.8l28.9-0.1c0.5 0 1-0.2 1.4-0.6s0.6-0.9 0.6-1.4l-0.2-55.1c0-1.1-0.9-2-2-2l-28.8 0.1h-0.1c-8.2 0-15.6-5-18.6-12.7-4.3-10.9-10.2-21.1-17.6-30.3-5.2-6.4-5.9-15.3-1.8-22.5l14.3-25c0.3-0.5 0.3-1 0.2-1.5s-0.5-0.9-0.9-1.2L850.8 543c-0.3-0.2-0.6-0.3-1-0.3-0.3 0-1.2 0.1-1.7 1l-14.3 25c-4.1 7.1-12.2 11-20.3 9.8-11.7-1.7-23.6-1.7-35.1 0.1-8.1 1.3-16.2-2.6-20.4-9.7L743.5 544c-0.5-0.9-1.5-1-1.7-1-0.3 0-0.7 0.1-1 0.3L693.2 571c-0.5 0.3-0.8 0.7-0.9 1.2-0.1 0.5-0.1 1 0.2 1.5l14.5 25c4.1 7.1 3.5 16-1.6 22.5-4.2 5.3-7.4 9.9-10 14.5-2.6 4.6-5 9.6-7.4 15.9-3 7.7-10.4 12.7-18.6 12.8l-28.9 0.1c-0.5 0-1 0.2-1.4 0.6s-0.6 0.9-0.6 1.4l0.2 55.1c0 1.1 0.9 2 2 2l28.9-0.1z"  p-id="3066"></path><path d="M796.3 752.7c-10.3 0-20.4-2.7-29.3-7.8-13.7-7.8-23.5-20.5-27.6-35.7-4.1-15.2-2.1-31.1 5.8-44.8 10.5-18.3 30.1-29.7 51.2-29.7 10.3 0 20.4 2.7 29.3 7.8 13.7 7.8 23.5 20.5 27.6 35.7s2.1 31.1-5.8 44.8c-10.5 18.3-30.1 29.7-51.2 29.7z m0.1-78c-6.8 0-13.1 3.7-16.5 9.6-2.5 4.4-3.2 9.5-1.9 14.4 1.3 4.9 4.5 9 8.9 11.5 2.9 1.7 6.1 2.5 9.4 2.5 6.8 0 13.1-3.7 16.5-9.6 2.5-4.4 3.2-9.5 1.9-14.4-1.3-4.9-4.5-9-8.9-11.5-2.9-1.7-6.1-2.5-9.4-2.5z"  p-id="3067"></path></svg>